ffmpeg version 3.4.8-0ubuntu0.2 Copyright (c) 2000-2020 the FFmpeg developers
  built with gcc 7 (Ubuntu 7.5.0-3ubuntu1~18.04)
  configuration: --prefix=/usr --extra-version=0ubuntu0.2 --toolchain=hardened --libdir=/usr/lib/x86_64-linux-gnu --incdir=/usr/include/x86_64-linux-gnu --enable-gpl --disable-stripping --enable-avresample --enable-avisynth --enable-gnutls --enable-ladspa --enable-libass --enable-libbluray --enable-libbs2b --enable-libcaca --enable-libcdio --enable-libflite --enable-libfontconfig --enable-libfreetype --enable-libfribidi --enable-libgme --enable-libgsm --enable-libmp3lame --enable-libmysofa --enable-libopenjpeg --enable-libopenmpt --enable-libopus --enable-libpulse --enable-librubberband --enable-librsvg --enable-libshine --enable-libsnappy --enable-libsoxr --enable-libspeex --enable-libssh --enable-libtheora --enable-libtwolame --enable-libvorbis --enable-libvpx --enable-libwavpack --enable-libwebp --enable-libx265 --enable-libxml2 --enable-libxvid --enable-libzmq --enable-libzvbi --enable-omx --enable-openal --enable-opengl --enable-sdl2 --enable-libdc1394 --enable-libdrm --enable-libiec61883 --enable-chromaprint --enable-frei0r --enable-libopencv --enable-libx264 --enable-shared
  libavutil      55. 78.100 / 55. 78.100
  libavcodec     57.107.100 / 57.107.100
  libavformat    57. 83.100 / 57. 83.100
  libavdevice    57. 10.100 / 57. 10.100
  libavfilter     6.107.100 /  6.107.100
  libavresample   3.  7.  0 /  3.  7.  0
  libswscale      4.  8.100 /  4.  8.100
  libswresample   2.  9.100 /  2.  9.100
  libpostproc    54.  7.100 / 54.  7.100
[rawvideo @ 0x558d5f404a20] Estimating duration from bitrate, this may be inaccurate
Input #0, rawvideo, from '../../SVC-Encoder-20220109T061506Z-001/SVC-Encoder/Dataset/RollerCoaster/ERP_8x8/tile_yuv/Tile_34_480x240.yuv':
  Duration: 00:00:10.00, start: 0.000000, bitrate: 41472 kb/s
    Stream #0:0: Video: rawvideo (I420 / 0x30323449), yuv420p, 480x240, 41472 kb/s, 30 tbr, 30 tbn, 30 tbc
Stream mapping:
  Stream #0:0 -> #0:0 (rawvideo (native) -> h264 (libx264))
Press [q] to stop, [?] for help
[libx264 @ 0x558d5f411c60] using cpu capabilities: MMX2 SSE2Fast LZCNT SSSE3 SSE4.2 AVX
[libx264 @ 0x558d5f411c60] profile High, level 2.1
Output #0, rawvideo, to 'RollerCoaster_Tile_34_480x240_x264_QP_40.h264':
  Metadata:
    encoder         : Lavf57.83.100
    Stream #0:0: Video: h264 (libx264), yuv420p, 480x240, q=-1--1, 30 fps, 30 tbn, 30 tbc
    Metadata:
      encoder         : Lavc57.107.100 libx264
    Side data:
      cpb: bitrate max/min/avg: 0/0/0 buffer size: 0 vbv_delay: -1
frame=  228 fps=0.0 q=46.0 PSNR=Y:nan U:nan V:nan *:nan size=      33kB time=00:00:06.16 bitrate=  43.4kbits/s speed=12.3x    frame=  300 fps=0.0 q=46.0 LPSNR=Y:inf U:inf V:inf *:inf size=      51kB time=00:00:09.93 bitrate=  42.1kbits/s speed=14.4x    
video:51kB audio:0kB subtitle:0kB other streams:0kB global headers:0kB muxing overhead: 0.000000%
[libx264 @ 0x558d5f411c60] frame I:2     Avg QP:37.75  size:  3578  PSNR Mean Y:32.14 U:41.81 V:43.32 Avg:33.70 Global:33.63
[libx264 @ 0x558d5f411c60] frame P:76    Avg QP:39.80  size:   366  PSNR Mean Y:30.77 U:41.88 V:43.08 Avg:32.38 Global:32.37
[libx264 @ 0x558d5f411c60] frame B:222   Avg QP:45.53  size:    78  PSNR Mean Y:30.52 U:41.78 V:43.01 Avg:32.14 Global:32.13
[libx264 @ 0x558d5f411c60] consecutive B-frames:  1.3%  0.0%  0.0% 98.7%
[libx264 @ 0x558d5f411c60] mb I  I16..4: 28.6% 65.7%  5.8%
[libx264 @ 0x558d5f411c60] mb P  I16..4:  0.5%  0.3%  0.0%  P16..4: 30.4%  2.8%  0.3%  0.0%  0.0%    skip:65.6%
[libx264 @ 0x558d5f411c60] mb B  I16..4:  0.0%  0.0%  0.0%  B16..8: 12.6%  0.0%  0.0%  direct: 0.0%  skip:87.4%  L0:39.2% L1:60.8% BI: 0.0%
[libx264 @ 0x558d5f411c60] 8x8 transform intra:59.0% inter:81.7%
[libx264 @ 0x558d5f411c60] coded y,uvDC,uvAC intra: 33.1% 30.1% 0.9% inter: 1.0% 0.5% 0.0%
[libx264 @ 0x558d5f411c60] i16 v,h,dc,p: 13% 57% 21% 10%
[libx264 @ 0x558d5f411c60] i8 v,h,dc,ddl,ddr,vr,hd,vl,hu:  2% 10% 53%  2%  5%  3%  9%  7%  9%
[libx264 @ 0x558d5f411c60] i4 v,h,dc,ddl,ddr,vr,hd,vl,hu:  6% 15% 25%  6% 10%  5% 18%  7% 10%
[libx264 @ 0x558d5f411c60] i8c dc,h,v,p: 78% 14%  4%  4%
[libx264 @ 0x558d5f411c60] Weighted P-Frames: Y:1.3% UV:0.0%
[libx264 @ 0x558d5f411c60] ref P L0: 66.1% 14.3% 13.5%  6.0%  0.1%
[libx264 @ 0x558d5f411c60] ref B L0: 73.7% 23.2%  3.1%
[libx264 @ 0x558d5f411c60] ref B L1: 81.8% 18.2%
[libx264 @ 0x558d5f411c60] PSNR Mean Y:30.595 U:41.807 V:43.031 Avg:32.214 Global:32.196 kb/s:41.82
